<svg width="20.000000" height="20.000000" viewBox="0 0 20 20" fill="none" xmlns="http://www.w3.org/2000/svg" xmlns:xlink="http://www.w3.org/1999/xlink">
	<desc>
			Created with Pixso.
	</desc>
	<defs>
		<clipPath id="clip8_271">
			<rect id="Folder" rx="-0.500000" width="19.000000" height="19.000000" transform="translate(0.500000 0.500000)" fill="white" fill-opacity="0"/>
		</clipPath>
	</defs>
	<rect id="Folder" rx="-0.500000" width="19.000000" height="19.000000" transform="translate(0.500000 0.500000)" fill="#FFFFFF" fill-opacity="0"/>
	<g clip-path="url(#clip8_271)">
		<path id="Icon" d="M17.84 17.01C17.53 17.32 17.1 17.5 16.66 17.5L3.33 17.5C2.89 17.5 2.46 17.32 2.15 17.01C1.84 16.69 1.66 16.27 1.66 15.83L1.66 4.16C1.66 3.72 1.84 3.3 2.15 2.98C2.46 2.67 2.89 2.5 3.33 2.5L7.5 2.5L9.16 5L16.66 5C17.1 5 17.53 5.17 17.84 5.48C18.15 5.8 18.33 6.22 18.33 6.66L18.33 15.83C18.33 16.27 18.15 16.69 17.84 17.01Z" stroke="#797576" stroke-opacity="1.000000" stroke-width="4.000000" stroke-linejoin="round"/>
	</g>
</svg>
